<svg version="1.0" xmlns="http://www.w3.org/2000/svg"
 width="500.000000pt" height="500.000000pt" viewBox="0 0 500.000000 500.000000"
 preserveAspectRatio="xMidYMid meet">
<metadata>
Created by potrace 1.10, written by Peter Selinger 2001-2011
</metadata>
<g transform="translate(0.000000,500.000000) scale(0.050000,-0.050000)"
fill="#ffffff" stroke="none">
<path d="M4791 7430 c-430 -153 -399 -772 44 -867 256 -55 507 127 538 390 39
329 -275 586 -582 477z"/>
<path d="M5984 7063 c-584 -208 -451 -1072 166 -1072 498 0 742 558 410 936
-125 142 -386 204 -576 136z"/>
<path d="M3792 6995 c-157 -41 -324 -288 -283 -419 4 -14 13 -51 20 -81 6 -30
40 -86 74 -126 283 -322 789 -46 667 365 -62 209 -262 318 -478 261z"/>
<path d="M3096 6161 c-353 -112 -300 -629 68 -655 263 -19 438 245 323 488
-61 128 -254 211 -391 167z"/>
<path d="M6559 5834 c-537 -152 -717 -833 -323 -1220 356 -349 947 -247 1168
202 271 549 -257 1185 -845 1018z"/>
<path d="M1873 5787 c-7 -8 -13 -126 -13 -264 l0 -250 -55 52 c-336 320 -856
-151 -634 -574 119 -225 443 -300 613 -141 68 63 70 63 86 -10 11 -50 23 -60
72 -60 l58 0 0 630 0 630 -57 0 c-31 0 -62 -6 -70 -13z m-173 -523 c273 -143
166 -604 -140 -604 -180 0 -289 122 -287 321 2 248 219 392 427 283z"/>
<path d="M4930 5772 c-93 -40 -119 -86 -130 -230 -10 -132 -10 -132 -75 -138
-103 -10 -98 -124 5 -124 l70 0 0 -370 0 -370 70 0 70 0 0 369 0 369 105 6
c164 9 173 111 11 120 l-106 6 -6 84 c-8 112 20 159 105 175 62 11 71 20 71
72 0 68 -77 81 -190 31z"/>
<path d="M5600 5170 l0 -630 70 0 70 0 0 630 0 630 -70 0 -70 0 0 -630z"/>
<path d="M3910 5546 c-7 -42 -14 -89 -16 -106 -3 -19 -31 -32 -79 -36 -119
-10 -114 -124 5 -124 l80 0 0 -285 c1 -380 47 -455 285 -455 l95 0 0 70 c0 69
-1 70 -89 70 -142 0 -151 20 -151 331 l0 269 130 0 130 0 0 59 c0 59 -1 59
-125 65 l-125 6 -10 100 c-14 138 -109 164 -130 36z"/>
<path d="M2730 5392 c-365 -162 -318 -759 67 -851 443 -107 733 454 400 773
-112 107 -323 142 -467 78z"/>
<path d="M3011 4385 c-224 -57 -254 -361 -46 -468 98 -49 187 -38 274 35 202
170 29 499 -228 433z"/>
<path d="M3373 3699 c-112 -89 -105 -288 13 -360 245 -149 484 185 259 362
-68 53 -203 52 -272 -2z"/>
</g>
</svg>